<svg xmlns:bx="https://boxy-svg.com" xmlns="http://www.w3.org/2000/svg" viewBox="0 0 500 500">
    <g transform="matrix(1.228731, 0, 0, 1.212864, -62.220078, 22.564358)" style="">
        <path d="M 373.413 138.251 C 373.677 144.964 372.321 189.719 373.013 194.595 C 373.705 199.47 374.657 205.635 375.129 208.294 C 375.6 210.953 376.664 215.17 377.495 217.664 C 378.326 220.159 380.502 225.349 382.332 229.198 L 385.658 236.197 L 383.761 238.235 C 382.717 239.356 378.613 241.855 374.642 243.788 C 370.67 245.721 364.174 248.24 360.206 249.385 C 356.237 250.531 350.46 251.832 347.369 252.276 C 344.277 252.72 338.428 253.403 334.372 253.792 C 328.123 254.392 327.982 252.881 323.564 255.362 C 320.696 256.974 298.223 264.358 298.223 264.769 C 298.223 265.179 290.364 273.672 294.224 273.824 C 298.086 273.976 322.932 270.215 329.992 269.892 C 337.053 269.57 346.693 269.122 349.561 268.612 C 352.429 268.104 359.263 266.439 364.746 264.912 C 370.228 263.385 378.479 259.01 381.6 257.526 C 384.722 256.042 385.994 252.304 388.176 250.818 C 391.026 248.879 392.966 244.765 394.557 241.581 C 395.775 239.143 398.926 232.178 399.22 230.703 C 399.69 228.36 392.625 216.066 390.113 213.481 L 373.413 138.251 Z M 237.224 251.18 C 235.857 252.183 230.389 258.539 227.914 259.868 C 226.573 260.588 195.033 264.841 166.403 265.252 C 142.175 265.6 121.002 262.154 121.003 262.256 C 121.006 262.473 121.494 270.171 122.997 272.738 C 123.172 273.037 137.07 274.821 151.956 274.01 C 182.423 272.352 226.013 267.024 227.513 266.267 C 229.006 265.513 236.978 257.673 239.52 256.058 L 237.224 251.18 Z M 395.435 260.321 C 391.194 262.89 374.386 272.713 368.021 274.764 C 362.592 276.514 355.983 278.483 353.335 279.141 C 350.688 279.798 345 280.77 340.696 281.301 C 335.9 281.89 327.36 282.107 318.632 281.861 C 305.964 281.502 303.334 281.176 294.767 278.904 C 289.472 277.499 282.673 275.417 279.659 274.277 C 275.824 272.825 273.805 267.712 273.215 268.305 C 272.624 268.898 272.475 274.278 274.374 275.439 C 275.867 276.352 280.874 278.294 284.487 279.607 C 288.1 280.922 294.238 282.538 298.126 283.199 C 302.015 283.86 308.988 284.832 313.621 285.358 C 318.654 285.929 325.759 286.105 331.272 285.795 C 336.347 285.509 343.567 284.727 347.318 284.057 C 351.069 283.388 356.484 282.256 359.353 281.544 C 362.221 280.832 366.914 279.325 369.783 278.196 C 371.278 277.608 379.616 274.365 385.3 271.059 C 390.521 268.023 394.145 265.646 395.295 263.798 L 395.435 260.321 Z"
              stroke="none" fill="#eebc73" fill-rule="evenodd" style="stroke-width: 1;">
            <bx:title>sombra1</bx:title>
        </path>
        <path d="M 200.571 220.112 C 200.282 220.869 176.077 241.831 168.952 241.583 C 161.441 241.321 130.775 238.729 127.11 237.249 C 123.445 235.77 118.449 234.179 117.128 233.233 C 115.807 232.289 111.627 229.469 110.876 229.687 C 110.126 229.905 79.999 196.92 82.907 204.684 C 84.981 210.22 90.049 219.353 94.082 224.512 C 99.984 232.062 119.137 246.341 120.522 247.29 C 121.907 248.239 128.994 251.511 134.667 252.907 C 140.339 254.303 148.039 255.818 151.778 256.272 C 155.517 256.727 163.46 257.097 169.429 257.095 C 175.932 257.093 184.467 256.473 190.728 255.548 C 196.475 254.698 204.146 253.242 207.776 252.311 C 211.406 251.381 216.994 249.675 220.194 248.52 C 223.394 247.366 228.054 245.391 230.55 244.131 C 233.045 242.872 235.853 241.903 236.041 241.338 C 236.229 240.772 245.236 238.143 243.656 236.887 C 242.076 235.631 257.551 148.781 256.354 147 C 255.156 145.218 253.519 142.935 252.652 140.609 C 251.787 138.284 236.321 118.218 235.811 115.392 C 235.687 114.704 208.52 102.97 205.729 111.346 C 197.051 137.388 204.904 210.333 204.483 209.527 L 200.571 220.112 Z"
              stroke="none" fill="#e8cca6" fill-rule="evenodd" style="stroke-width: 1;"></path>
        <path d="M 229.855 243.796 C 227.403 245.053 221.79 247.345 217.379 248.886 C 212.969 250.428 205.588 252.438 200.977 253.354 C 196.366 254.269 188.803 255.445 184.17 255.965 C 179.121 256.533 170.761 256.729 163.31 256.456 C 155.798 256.181 147.538 255.339 142.45 254.33 C 137.816 253.411 131.8 251.756 128.932 250.874 C 126.063 249.991 123.142 248.36 122.662 248.357 C 122.18 248.353 121.429 250.362 120.917 251.491 C 120.404 252.62 119.417 257.1 119.417 257.655 C 119.417 257.849 130.637 264 143.407 265.019 C 167.658 266.953 202.294 264.33 206.572 263.297 C 213.103 261.718 230.1 253.872 234.585 252.115 C 239.069 250.357 236.363 243.503 235.448 242.613 C 234.484 241.675 233.641 241.854 229.855 243.796 Z"
              stroke="none" fill="#97abd3" fill-rule="evenodd" style="stroke-width: 1;">
            <bx:title>sonbracollar</bx:title>
        </path>
        <path d="M 232.764 235.922 C 233.442 236.494 237.94 242.152 238.904 242.659 C 239.868 243.166 242.823 245.277 245.471 247.35 C 248.118 249.422 259.417 255.77 263.714 257.374 C 268.012 258.979 275.87 263.059 280.177 263.911 C 284.485 264.763 290.539 273.833 292.966 274.111 C 295.393 274.388 295.575 265.11 296.535 265.305 C 298.061 265.615 317.973 258.501 320.213 257.27 L 324.286 255.033 L 311.172 254.861 C 303.959 254.767 294.169 254.301 289.415 253.826 C 284.662 253.351 276.965 252.251 272.312 251.38 C 267.659 250.509 232.086 235.35 232.764 235.922 Z M 221.619 260.217 C 216.856 260.357 205.15 267.554 188.408 269.868 C 173.724 271.899 153.254 270.207 153.238 270.436 C 153.206 270.897 149.56 278.511 155.513 275.011 C 161.466 271.511 221.69 277.473 224.685 266.715 C 224.685 266.715 224.166 260.142 221.619 260.217 Z"
              stroke="none" fill="#e4d5b4" fill-rule="evenodd" style="stroke-width: 1;">
            <bx:title>sombra</bx:title>
        </path>
        <path d="M 216.106 71.001 C 214.165 72.388 209.698 76.468 206.182 80.067 C 202.664 83.666 203.251 84.352 202.995 85.024 C 202.738 85.695 189.494 106.29 189.484 105.515 C 189.47 104.494 185.424 104.662 179.913 104.748 C 175.373 104.818 174.183 103.655 175.195 105.648 C 176.064 107.358 170.272 115.205 171.337 118.897 C 172.402 122.588 179.685 125.455 180.153 129.663 C 180.621 133.871 119.626 206.347 107.306 205.599 C 95.33 204.873 82.846 204.066 82.682 204.217 C 82.525 204.361 84.903 207.724 88.07 211.506 C 91.611 215.734 95.763 220.422 97.252 221.52 C 100.074 223.602 107.946 230.602 107.946 230.602 L 117.496 236.779 C 121.397 238.713 127.521 241.956 131.739 243.295 C 135.958 244.633 143.2 246.53 147.833 247.508 C 154.963 249.015 158.846 249.291 173.106 249.305 C 187.616 249.318 191.11 249.069 198.282 247.508 C 202.862 246.51 209.993 244.606 214.128 243.275 C 218.262 241.945 229.163 238.898 229.163 238.621 C 229.163 238.507 223.554 229.862 222.473 225.787 C 220.919 219.934 219.562 213.938 219.691 210.981 L 219.632 202.653 C 219.632 202.653 220.089 199.951 221.511 195.353 C 223.019 190.476 225.796 186.231 227.553 183.998 C 229.31 181.766 232.213 178.419 235.242 176.396 C 238.271 174.374 240.49 171.882 241.197 171.077 C 241.904 170.272 243.625 167.318 245.023 164.513 C 246.42 161.708 248.627 156.516 249.927 152.975 C 251.226 149.434 252.29 145.655 252.29 144.577 C 252.29 143.499 252.659 142.617 253.109 142.617 C 253.56 142.617 253.914 142.123 251.522 138.566 C 249.131 135.007 245.805 130.113 245.282 130.639 C 244.846 131.077 240.715 131.465 236.104 131.501 C 230.043 131.548 226.51 131.164 223.357 130.116 C 220.958 129.319 217.68 127.837 216.072 126.823 C 214.465 125.808 212.346 123.844 211.363 122.458 C 210.38 121.072 209.078 118.274 208.468 116.241 C 207.859 114.208 207.361 110.234 207.361 107.41 C 207.361 104.357 213.43 99.313 214.42 96.333 C 215.095 94.305 211.381 90.691 213.204 85.923 C 213.86 84.209 214.534 82.466 215.188 80.8 C 217.908 73.867 219.225 71.859 219.988 71.652 C 221.116 71.348 222.327 70.114 221.18 70.03 C 220.474 69.978 218.048 69.614 216.106 71.001 Z M 254.486 169.517 C 250.735 170.11 246.253 172.888 244.267 173.688 C 242.281 174.487 239.371 175.944 237.799 176.926 C 236.227 177.906 233.256 180.592 231.197 182.893 C 229.137 185.194 226.337 189.35 224.976 192.13 C 223.146 195.861 222.38 198.753 222.046 203.187 C 221.738 207.288 222.028 211.349 222.962 215.996 C 223.714 219.738 225.363 224.975 226.626 227.634 C 227.888 230.294 230.118 233.621 231.58 235.028 C 233.042 236.436 236.946 239.031 240.256 240.795 C 243.565 242.559 251.147 245.471 257.104 247.266 C 263.061 249.061 271.817 251.803 277.112 252.716 C 283.882 253.884 294.595 255.534 307.685 255.897 L 324.567 255.109 L 336.962 249.807 C 338.534 248.602 341.231 245.734 342.954 243.434 C 344.677 241.135 346.869 237.259 347.827 234.822 C 348.987 231.865 349.71 227.824 349.998 222.681 C 350.327 216.783 350.108 213.863 349.059 210.239 C 348.305 207.635 346.464 203.126 344.968 200.218 C 343.472 197.311 341.787 194.367 341.224 193.677 C 340.66 192.988 340.429 189.158 337.54 187.808 C 334.651 186.457 330.995 183.905 329.283 182.399 C 327.572 180.894 313.848 181.478 312.603 179.51 C 310.687 176.48 309.637 175.708 305.725 174.455 C 303.185 173.642 300.711 167.263 296.298 166.14 C 290.183 164.583 281.873 168.157 273.312 167.91 C 266.268 167.706 258.762 168.843 254.486 169.517 Z M 224.59 264.753 C 224.201 264.769 219.991 267.349 213.419 268.85 C 203.876 271.03 190.965 272.384 190.965 272.384 L 168.959 273.547 C 154.038 273.547 144.499 272.578 144.06 273.967 C 143.801 274.789 141.695 279.289 141.043 283.01 C 140.391 286.732 139.857 291.148 139.856 292.823 C 139.856 294.722 138.696 295.457 137.981 295.732 C 137.35 295.975 155.612 300.62 164.438 301.752 C 173.263 302.885 185.719 304.333 192.117 304.972 C 198.516 305.61 208.083 306.345 213.378 306.605 C 218.674 306.865 242.502 306.834 246.253 307.246 C 250.003 307.658 248.367 306.832 248.367 306.832 L 246.953 296.759 C 246.175 291.219 244.814 283.604 243.929 279.836 C 243.043 276.069 225.662 272.026 225.382 270.143 C 224.957 267.296 226.032 264.695 224.59 264.753 Z M 249.918 271.553 C 249.902 271.775 249.935 271.332 249.918 271.553 Z"
              stroke="none" fill="#f9f5da" fill-rule="evenodd" style="stroke-width: 1;">
            <bx:title>piel</bx:title>
        </path>
        <path d="M 306.446 103.485 C 303.798 104.037 299.285 105.303 296.417 106.299 C 293.549 107.296 289.11 109.292 286.553 110.736 C 283.996 112.181 279.535 115.322 276.64 117.716 C 273.745 120.109 270.32 123.601 269.028 125.475 C 267.736 127.349 264.976 131.897 262.894 135.583 C 260.813 139.269 258.485 143.539 257.721 145.07 C 256.957 146.602 254.329 153.254 251.88 159.851 C 249.431 166.449 247.408 172.531 247.532 172.635 C 247.656 172.74 251.488 171.701 255.901 171.056 C 261.284 170.27 267.044 170.327 273.773 170.619 C 280.485 170.91 286.634 171.416 292.004 172.755 C 296.417 173.855 301.607 175.32 303.538 176.012 C 305.469 176.703 307.309 177.269 307.628 177.269 C 307.947 177.269 330.976 196.149 332.007 197.326 C 332.631 198.04 334.236 200.819 335.571 203.501 C 336.907 206.184 338.617 210.512 339.371 213.119 C 340.423 216.749 340.643 219.665 340.313 225.567 C 340.024 230.722 339.304 234.738 338.14 237.691 C 337.183 240.119 335.136 243.834 333.593 245.945 C 332.05 248.057 329.558 250.802 328.056 252.046 L 324.061 254.833 L 332.875 254.723 C 335.405 254.373 341.145 253.567 346.016 252.931 C 350.887 252.295 357.972 250.188 362.147 249.022 C 366.322 247.857 372.99 245.326 376.966 243.398 C 380.941 241.47 384.881 239.132 385.719 238.201 C 387.223 236.531 385.748 235.314 383.517 230.748 C 382.273 228.202 381.527 224.483 380.553 222.267 C 379.579 220.051 378.576 215.33 377.671 211.341 C 376.767 207.353 375.687 199.91 375.007 194.37 C 374.327 188.83 373.584 181.033 373.354 177.044 C 373.125 173.055 373.304 162.539 373.751 153.674 C 374.2 144.81 374.924 135.2 375.36 132.319 C 375.796 129.439 377.07 125.28 378.19 123.08 C 380.136 119.252 377.49 118.851 376.097 117.797 C 375.296 117.191 370.67 114.76 365.816 112.396 C 360.962 110.031 354.464 107.347 351.375 106.432 C 348.286 105.515 342.553 104.217 338.633 103.546 C 334.58 102.851 327.143 102.359 321.384 102.404 C 315.816 102.448 309.093 102.934 306.446 103.485 Z M 395.509 263.555 C 395.198 262.273 394.345 265.272 390.724 267.502 C 388.186 269.064 383.584 271.612 380.495 273.164 C 377.406 274.715 371.088 277.274 366.454 278.849 C 361.821 280.424 355.223 282.284 351.791 282.983 C 348.36 283.681 340.843 284.663 335.088 285.163 C 327.158 285.853 322.088 285.841 314.147 285.113 C 308.384 284.584 300.376 283.465 296.351 282.627 C 292.325 281.788 287.454 280.538 285.524 279.847 C 283.595 279.156 279.895 277.635 277.301 276.466 C 273.775 274.877 272.804 272.012 272.753 270.738 C 272.692 269.226 270.714 275.429 270.143 277.219 C 269.79 278.327 269.864 277.972 268.277 281.649 C 266.691 285.326 264.224 294.841 263.087 298.587 C 261.949 302.333 259.511 305.922 259.511 306.562 C 259.511 307.351 259.19 308.135 267.133 307.994 C 275.076 307.854 290.257 307.209 300.869 306.561 C 311.481 305.913 325.922 304.649 332.961 303.752 C 340 302.856 351.896 301.033 359.398 299.701 C 366.899 298.369 376.087 296.557 379.814 295.675 C 383.542 294.793 390.401 292.964 395.058 291.609 C 399.714 290.254 403.824 288.859 404.189 288.507 C 404.554 288.155 403.113 279.759 400.697 274.054 C 398.281 268.348 395.723 264.442 395.509 263.555 Z"
              stroke="none" fill="#fce19f" fill-rule="evenodd" style="stroke-width: 1;">
            <bx:title>perro</bx:title>
        </path>
        <path d="M 280.575 72.982 C 280.833 73.242 263.562 74.448 262.887 76.731 C 262.212 79.013 246.877 92.26 244.022 95.818 C 241.166 99.376 243.686 113.125 240.541 116.105 C 237.397 119.085 250.055 119.248 250.301 119.248 C 250.548 119.248 252.269 118.475 254.127 117.531 C 255.985 116.587 258.463 115.136 259.634 114.307 C 260.806 113.479 262.435 112.801 263.256 112.801 C 264.076 112.801 266.623 114.07 268.917 115.622 C 271.21 117.173 273.944 119.743 274.199 119.743 C 274.452 119.743 276.918 117.501 279.82 115.266 C 282.723 113.031 287.451 110.131 290.327 108.822 C 293.202 107.512 296.951 106.063 298.659 105.601 C 300.366 105.14 301.763 104.64 301.763 104.493 C 301.763 104.344 300.467 101.602 299.534 99.483 C 298.601 97.364 296.129 92.648 294.041 89.004 C 291.954 85.36 288.545 80.159 286.465 77.444 C 284.386 74.73 282.103 72.509 281.394 72.509 C 280.684 72.509 280.315 72.721 280.575 72.982 Z M 325.278 158.508 C 324.187 159.27 322.675 160.63 321.917 161.53 C 321.16 162.43 319.96 164.882 319.25 166.978 C 318.541 169.075 318.192 171.522 318.475 172.418 C 318.809 173.475 319.688 174.046 320.982 174.046 C 322.511 174.046 323.256 173.372 324.179 171.15 C 324.842 169.558 325.257 167.874 325.103 167.407 C 324.948 166.941 324.373 168.062 323.825 169.899 C 323.09 172.362 322.409 173.24 321.231 173.24 C 320.352 173.24 319.431 172.709 319.183 172.061 C 318.935 171.413 319.317 169.114 320.032 166.953 C 320.747 164.792 322.377 162.017 323.656 160.787 C 325.229 159.274 327.102 158.427 329.451 158.168 C 332.184 157.867 333.519 158.19 335.73 159.687 C 337.274 160.732 339.169 162.849 339.94 164.391 C 340.832 166.173 341.344 166.653 341.344 165.708 C 341.345 164.89 340.596 163.163 339.678 161.868 C 338.761 160.575 336.973 158.978 335.707 158.319 C 334.439 157.661 332.021 157.123 330.332 157.123 C 328.643 157.123 326.369 157.746 325.278 158.508 Z M 332.893 163.852 C 333.963 164.637 334.463 166.259 334.692 169.694 C 334.868 172.309 335.179 175.264 335.386 176.262 C 335.671 177.642 336.32 178.075 338.105 178.075 C 339.394 178.075 340.678 177.702 340.958 177.248 C 341.238 176.793 341.604 174.346 341.774 171.808 L 342.08 167.196 L 341.389 171.51 C 341.01 173.883 340.341 176.183 339.904 176.622 C 339.467 177.061 338.439 177.291 337.62 177.134 C 336.388 176.898 336.054 175.855 335.683 171.082 C 335.437 167.911 334.761 164.742 334.181 164.04 C 333.601 163.338 332.74 162.764 332.269 162.764 C 331.798 162.764 332.079 163.254 332.893 163.852 Z M 446.493 195.602 C 445.898 197.264 378.908 193.979 378.908 194.746 C 378.908 195.514 380.159 200.897 381.509 204.951 C 382.859 209.006 385.266 214.68 386.857 217.561 C 388.448 220.442 391.224 224.721 393.026 227.07 C 394.829 229.42 398.014 232.405 400.104 233.705 C 402.194 235.004 405.554 236.484 407.573 236.995 C 409.591 237.505 413.164 237.724 415.514 237.48 C 417.863 237.237 421.903 236.039 424.492 234.82 C 427.601 233.355 431.267 230.529 435.292 226.493 C 439.559 222.213 442.125 218.812 443.852 215.144 C 445.208 212.263 446.888 207.678 447.586 204.955 C 448.284 202.231 448.855 198.333 448.855 196.292 C 448.855 194.251 448.566 190.423 448.214 190.423 L 446.493 195.602 Z"
              stroke="none" fill="#a8a1cb" fill-rule="evenodd" style="stroke-width: 1;">
            <bx:title>sumbra orejas</bx:title>
        </path>
        <path d="M 387.478 249.948 C 385.272 251.339 380.859 253.674 377.672 255.136 C 374.484 256.597 368.347 258.873 364.033 260.194 C 359.718 261.514 352.603 263.187 348.22 263.912 C 343.837 264.637 336.255 265.507 331.372 265.844 C 326.488 266.181 319.062 266.343 314.87 266.206 C 310.678 266.069 303.999 265.549 300.027 265.051 C 296.056 264.554 289.738 263.615 285.987 262.965 C 282.236 262.316 277.866 261.584 276.276 261.34 C 273.736 260.951 273.323 261.128 272.877 262.8 C 272.598 263.847 272.365 266.081 272.359 267.764 C 272.351 270.021 272.887 271.326 274.402 272.736 C 275.531 273.788 279.052 275.584 282.224 276.727 C 285.397 277.87 291.062 279.515 294.812 280.383 C 298.563 281.251 304.691 282.339 308.431 282.8 C 312.169 283.263 319.39 283.634 324.477 283.626 C 329.563 283.618 337.415 283.084 341.924 282.44 C 346.435 281.796 353.024 280.526 356.566 279.618 C 360.107 278.71 365.623 277.022 368.823 275.867 C 372.024 274.711 377.71 272.219 381.461 270.327 C 385.212 268.434 389.725 265.729 391.49 264.317 C 393.255 262.903 394.97 261.019 395.302 260.129 C 395.645 259.209 395.377 256.69 394.68 254.28 C 394.006 251.952 393.013 249.455 392.472 248.732 C 391.585 247.544 391.104 247.661 387.478 249.948 Z"
              stroke="none" fill="#bfe4bc" fill-rule="evenodd" style="stroke-width: 1;">
            <bx:title>collarperro</bx:title>
        </path>
        <path d="M 86.456 92.789 C 85.486 93.273 84.138 94.843 83.46 96.277 C 82.783 97.712 81.612 101.382 80.858 104.433 C 79.795 108.734 79.493 113.511 79.512 125.695 C 79.531 137.717 79.945 144.03 81.271 152.569 C 82.224 158.708 83.004 165.325 83.004 167.276 L 83.004 170.822 L 81.984 185.715 C 81.984 185.715 82.53 203.538 82.692 204.212 C 82.854 204.886 96.466 206.032 101.016 206.394 C 105.566 206.756 128.698 206.326 129.423 206.383 C 130.148 206.441 132.546 206.408 134.752 206.312 C 136.959 206.215 141.123 205.646 144.006 205.047 C 146.89 204.448 152.341 202.834 156.121 201.46 C 160.709 199.792 164.565 197.692 167.726 195.139 C 170.331 193.037 174.14 189.089 176.192 186.367 C 178.244 183.645 180.679 179.388 181.603 176.908 C 182.527 174.427 183.691 169.776 184.189 166.573 C 184.732 163.082 184.885 157.441 184.569 152.491 C 184.28 147.949 184.603 143.307 184.263 142.38 C 183.999 141.664 183.649 136.414 183.252 131.204 C 182.811 125.403 176.967 106.051 176.38 104.905 C 175.508 103.199 159.68 106.685 157.694 106.977 L 155.267 107.335 C 155.267 107.335 141.365 111.611 141.011 111.634 C 140.657 111.658 139.099 111.954 137.545 112.293 C 134.952 112.86 134.071 112.471 126.714 107.499 C 122.31 104.523 115.818 100.721 112.288 99.049 C 108.758 97.379 103.703 95.293 101.056 94.416 C 98.408 93.537 94.437 92.615 92.23 92.363 C 89.961 92.105 87.453 92.29 86.456 92.789 Z M 120.566 265.782 C 120.288 266.511 111.609 282.09 111.548 282.211 C 111.487 282.333 110.829 283.778 110.086 285.423 C 109.341 287.069 108.991 288.563 109.307 288.744 C 109.623 288.924 113.837 290.242 118.673 291.674 C 123.507 293.106 131.27 295.144 135.922 296.204 C 140.574 297.265 145.373 298.426 146.586 298.43 C 148.642 298.436 148.796 297.912 148.835 294.721 C 148.859 292.838 149.537 287.879 150.342 283.702 C 150.973 280.429 151.887 275.697 152.236 273.384 C 152.355 272.596 143.048 271.225 138.856 270.226 C 134.664 269.228 128.68 268.233 125.955 266.962 C 121.991 265.113 121.236 264.553 120.89 265.458 L 120.566 265.782 Z M 224.414 264.753 C 223.843 265.195 227.338 278.224 227.747 279.265 C 228.082 280.12 229.019 284.265 229.829 288.476 C 230.638 292.687 231.547 298.529 231.848 301.46 L 232.395 306.788 L 238.453 307.302 C 241.784 307.585 247.885 307.816 252.01 307.816 C 256.136 307.816 259.511 307.658 259.511 307.463 C 259.511 307.269 258.96 304.64 258.286 301.621 C 257.613 298.601 256.159 292.62 255.056 288.329 C 253.953 284.038 252.247 278.749 251.266 276.575 L 247.097 267.758 C 247.097 267.758 245.092 264.048 243.95 262.278 C 242.573 260.143 239.494 256.095 239.494 256.095 L 232.245 260.832 L 224.414 264.753 Z"
              stroke="none" fill="#f2ce9e" fill-rule="evenodd" style="stroke-width: 1;">
            <bx:title>gato</bx:title>
        </path>
        <path d="M 261.837 68.719 C 259.366 69.764 254.492 72.181 251.006 74.089 C 247.52 75.997 241.677 79.504 238.022 81.883 C 234.366 84.262 231.153 86.208 230.883 86.208 C 230.613 86.208 221.775 83.804 218.17 87.461 C 214.525 91.159 212.915 98.51 211.898 100.646 C 210.891 102.759 213.433 107.782 213.201 109.521 C 212.969 111.259 213.004 114.41 213.279 115.511 C 213.554 116.611 214.76 118.683 215.959 120.114 C 217.158 121.545 219.747 123.431 221.712 124.304 C 224.29 125.45 226.977 125.878 231.366 125.843 C 235.33 125.811 239.095 125.217 242.181 124.135 C 244.784 123.222 250.548 119.248 250.301 119.248 C 250.055 119.248 252.427 116.81 255.571 113.83 C 258.716 110.85 263.625 105.502 266.481 101.944 C 269.336 98.386 273.229 92.388 275.131 88.616 C 277.034 84.843 279.143 79.888 279.818 77.606 C 280.493 75.323 280.833 73.242 280.575 72.982 C 280.315 72.721 280.707 72.509 281.443 72.509 C 282.191 72.509 284.824 75.309 287.394 78.84 C 289.929 82.323 293.635 88.386 294.213 89.225 C 294.789 90.064 293.269 86.709 292.251 84.859 C 291.232 83.009 288.694 79.303 286.609 76.623 C 284.524 73.945 281.322 70.758 279.495 69.544 C 276.972 67.867 274.987 67.273 271.251 67.077 C 267.47 66.879 265.291 67.259 261.837 68.719 Z M 380.659 119.539 C 378.52 120.237 377.428 121.321 376.078 124.083 C 375.103 126.077 373.932 130.066 373.477 132.947 C 373.021 135.828 372.649 141.993 372.649 146.647 C 372.65 151.3 373.185 160.004 373.836 165.987 C 374.488 171.97 375.796 180.855 376.744 185.73 C 377.691 190.606 378.701 194.776 378.988 194.998 C 379.274 195.219 380.749 197.369 382.265 199.775 C 383.781 202.181 387.053 206.648 389.537 209.7 C 392.02 212.754 395.752 216.465 397.829 217.948 C 399.906 219.431 403.442 221.087 405.686 221.628 C 408.103 222.21 412.023 222.421 415.302 222.145 C 418.656 221.863 422.58 220.878 425.256 219.648 C 427.817 218.47 431.615 215.659 434.296 212.955 C 436.839 210.392 440.381 206.118 442.166 203.459 C 443.952 200.8 446.071 197.212 446.666 195.55 C 447.07 194.42 448.19 192.822 448.349 190.667 C 448.423 189.652 448.125 188.77 447.732 187.286 C 446.6 183.015 444.374 175.478 442.834 172.539 C 441.295 169.6 437.598 163.933 434.617 159.945 C 431.637 155.957 425.764 149.249 421.568 145.037 C 417.372 140.825 411.234 135.172 407.929 132.474 C 404.624 129.776 400.088 126.283 397.85 124.712 C 395.611 123.14 392.723 121.319 391.431 120.665 C 390.14 120.01 387.819 119.283 386.275 119.048 C 384.731 118.813 382.203 119.034 380.659 119.539 Z M 331.467 139.55 C 328.902 139.883 324.985 141.148 322.764 142.363 C 320.541 143.578 317.154 146.325 315.235 148.469 C 313.317 150.612 311.005 154.356 310.099 156.789 C 308.991 159.764 308.451 163.134 308.451 167.082 C 308.451 170.359 309.021 174.631 309.74 176.751 C 310.48 178.933 312.726 182.415 315.018 184.933 C 317.627 187.801 320.857 190.231 324.353 191.956 C 329.282 194.389 330.293 194.591 337.327 194.557 C 343.977 194.524 345.485 194.243 349.072 192.376 C 351.335 191.198 354.667 188.718 356.474 186.866 C 358.282 185.014 360.507 181.95 361.419 180.058 C 362.331 178.166 363.49 174.385 363.996 171.657 C 364.708 167.809 364.685 165.577 363.894 161.708 C 363.334 158.964 361.932 154.973 360.778 152.836 C 359.625 150.701 357.476 147.889 356.002 146.589 C 354.527 145.29 351.617 143.359 349.533 142.298 C 347.451 141.238 343.583 140.05 340.938 139.658 C 338.294 139.267 334.032 139.218 331.467 139.55 Z"
              stroke="none" fill="#c8c0e2" fill-rule="evenodd" style="stroke-width: 1;">
            <bx:title>mancha perro</bx:title>
        </path>
        <path d="M 227.148 250.507 C 222.663 252.264 216.268 255.865 209.737 257.444 C 203.207 259.021 190.411 260.935 184.145 261.874 C 176.434 263.028 168.7 262.843 160.827 262.822 C 154.429 262.805 145.543 262.241 141.082 261.569 C 136.62 260.897 119.687 256.355 119.522 257.392 C 119.293 258.834 119.906 261.476 121.404 262.923 C 121.912 263.413 122.949 263.499 123.512 263.715 C 126.934 265.028 137.019 267.285 140.77 268.198 C 144.521 269.109 150.649 270.237 154.388 270.705 C 158.127 271.171 164.626 271.531 168.83 271.503 C 173.033 271.476 179.18 271.169 182.49 270.821 C 185.799 270.473 188.642 270.298 188.806 270.433 C 188.971 270.567 187.978 272.387 186.6 274.477 C 184.566 277.561 184.094 279.1 184.094 282.65 C 184.094 285.055 184.692 288.289 185.423 289.836 C 186.154 291.383 188.05 293.51 189.635 294.563 C 191.337 295.692 194.327 296.681 196.931 296.974 C 200.65 297.394 201.912 297.168 204.954 295.533 C 207.209 294.322 209.238 292.405 210.357 290.43 C 211.513 288.389 212.153 285.9 212.162 283.414 C 212.169 281.294 211.681 278.371 211.076 276.918 C 210.472 275.465 208.455 272.967 206.595 271.368 C 203.565 268.763 203.366 268.382 204.685 267.711 C 205.495 267.299 215.768 264.85 219.519 263.691 C 223.27 262.532 225.517 261.615 229.489 259.342 C 233.46 257.07 237.31 253.97 238.391 252.914 C 239.747 251.59 237.283 247.087 236.583 245.117 L 227.148 250.507 Z M 194.921 275.59 C 194.646 276.037 194.645 277.113 194.919 277.981 C 195.314 279.232 194.953 279.661 193.166 280.055 C 191.927 280.328 190.463 280.691 189.911 280.862 C 189.36 281.033 188.908 282.018 188.908 283.052 C 188.908 284.085 189.341 285.365 189.871 285.897 C 190.4 286.429 191.821 286.864 193.03 286.864 C 194.92 286.864 195.26 287.228 195.477 289.483 C 195.708 291.891 195.954 292.102 198.536 292.102 C 201.118 292.102 201.364 291.891 201.595 289.483 C 201.779 287.561 202.242 286.864 203.335 286.864 C 204.153 286.864 205.394 286.644 206.092 286.375 C 206.949 286.045 207.361 284.866 207.361 282.749 C 207.361 279.701 207.282 279.612 204.553 279.612 C 201.968 279.612 201.745 279.42 201.745 277.194 C 201.745 274.917 201.561 274.777 198.583 274.777 C 196.844 274.777 195.196 275.142 194.921 275.59 Z"
              stroke="none" fill="#b5cce8" fill-rule="evenodd" style="stroke-width: 1;">
            <bx:title>collar gato</bx:title>
        </path>
        <path d="M 219.657 71.501 C 219.388 72.277 216.639 75.32 215.207 78.865 C 213.775 82.411 211.053 89.398 209.459 94.09 C 207.865 98.783 207.3 107.971 207.3 109.082 C 207.3 110.193 208.872 110.02 209.738 110.808 C 210.604 111.595 211.821 109.577 212.443 109.338 C 213.065 109.098 213.825 107.876 214.134 106.621 C 214.443 105.366 215.78 102.633 217.107 100.547 C 218.434 98.46 221.838 94.574 224.672 91.911 C 227.507 89.248 229.826 86.683 229.826 86.211 C 229.826 85.738 229.073 83.097 228.153 80.34 C 227.233 77.584 225.589 74.151 224.502 72.71 C 223.414 71.269 221.989 70.091 221.336 70.091 C 220.682 70.091 219.927 70.726 219.657 71.501 Z M 200.351 87.581 C 199.037 89.264 195.933 93.814 193.453 97.691 C 189.742 103.495 188.586 104.743 186.92 104.743 C 185.807 104.743 184.902 105.014 184.909 105.347 C 184.916 105.68 186.124 110.777 187.594 116.675 C 189.065 122.572 190.99 128.374 191.873 129.568 C 192.757 130.762 194.413 131.851 195.553 131.988 C 197.043 132.168 197.9 131.722 198.602 130.406 C 199.139 129.398 199.6 125.478 199.625 121.694 C 199.652 117.911 199.528 112.096 199.351 108.772 C 199.1 104.055 199.513 100.806 201.234 93.976 C 202.446 89.162 203.281 85.065 203.09 84.873 C 202.898 84.679 201.666 85.899 200.351 87.581 Z M 92.529 106.075 C 91.708 107.069 91.442 110.196 91.484 118.365 C 91.524 126.005 91.958 130.903 92.92 134.548 C 93.679 137.423 94.835 140.596 95.49 141.599 C 96.145 142.602 97.384 143.423 98.244 143.423 C 99.105 143.423 102.797 140.613 106.45 137.178 C 110.102 133.743 114.972 129.51 117.27 127.77 C 119.57 126.03 121.637 124.118 121.865 123.52 C 122.094 122.924 120.98 120.99 119.391 119.223 C 117.802 117.456 114.29 114.331 111.587 112.278 C 108.884 110.225 104.867 107.693 102.66 106.652 C 100.454 105.61 97.52 104.755 96.139 104.751 C 94.759 104.746 93.135 105.342 92.529 106.075 Z M 166.71 105.469 C 163.988 105.735 161.567 106.147 161.329 106.387 C 161.091 106.627 162.832 111.522 165.198 117.266 C 167.564 123.01 170.708 130.784 172.184 134.543 C 174.126 139.488 175.42 141.651 176.866 142.37 C 178.472 143.167 179.181 143.152 180.477 142.293 C 181.646 141.517 182.161 140.142 182.354 137.287 C 182.5 135.121 182.194 130.665 181.674 127.383 C 181.154 124.101 179.502 117.755 178.002 113.281 C 176.503 108.806 175.274 105.054 175.272 104.944 C 175.27 104.834 174.457 104.798 173.464 104.865 C 172.47 104.933 169.432 105.205 166.71 105.469 Z M 146.53 109.359 C 142.699 110.492 142.308 110.812 142.724 112.48 C 142.979 113.501 145.165 118.797 147.58 124.247 C 150.339 130.473 152.876 134.98 154.406 136.372 C 155.746 137.591 157.213 138.588 157.667 138.588 C 158.122 138.588 159.428 137.649 160.571 136.501 C 162.521 134.543 162.618 134.079 162.148 128.996 C 161.872 126.016 160.965 121.589 160.133 119.158 C 159.3 116.727 157.844 113.214 156.899 111.352 C 155.491 108.581 154.78 107.978 152.989 108.031 C 151.784 108.067 148.877 108.665 146.53 109.359 Z M 82.548 172.688 C 82.275 173.403 81.995 176.416 81.926 179.383 C 81.801 184.729 81.822 184.784 84.207 185.461 C 85.531 185.837 90.225 186.156 94.637 186.171 C 99.444 186.187 104.203 185.727 106.51 185.024 C 108.627 184.378 111.245 183.268 112.326 182.555 C 113.645 181.687 114.294 180.512 114.294 178.987 C 114.294 177.736 113.657 176.133 112.878 175.426 C 112.099 174.718 109.843 173.747 107.863 173.267 C 105.884 172.788 99.49 172.169 93.655 171.892 C 84.338 171.45 82.985 171.547 82.548 172.688 Z M 234.639 266.422 C 230.889 269.762 227.698 273.036 227.548 273.699 C 227.399 274.362 227.487 275.746 227.744 276.774 C 228.022 277.887 229.157 278.976 230.547 279.463 C 232.091 280.003 234.064 280.015 236.368 279.497 C 238.286 279.066 241.299 277.865 243.064 276.829 C 244.83 275.792 246.94 274.206 247.752 273.305 C 249.194 271.703 249.16 271.538 246.247 265.969 C 244.607 262.835 242.86 260.289 242.362 260.311 C 241.866 260.332 238.39 263.082 234.639 266.422 Z M 115.664 274.243 C 114.027 277.052 112.689 279.911 112.689 280.595 C 112.689 281.393 113.964 282.161 116.254 282.739 C 118.214 283.236 121.383 283.641 123.296 283.641 C 125.208 283.641 127.576 283.076 128.556 282.386 C 129.538 281.696 130.34 280.317 130.34 279.321 C 130.34 278.317 129.177 276.418 127.732 275.061 C 126.298 273.714 123.819 271.83 122.222 270.874 C 120.626 269.918 119.166 269.136 118.979 269.136 C 118.791 269.136 117.3 271.434 115.664 274.243 Z"
              stroke="none" fill="#eaa69f" fill-rule="evenodd" style="stroke-width: 1;">
            <bx:title>manchas gato</bx:title>
        </path>
        <path d="M 270.342 145.593 C 269.459 145.775 267.895 146.345 266.866 146.86 C 265.836 147.375 264.122 149.292 263.055 151.12 C 261.951 153.011 261.115 155.726 261.115 157.42 C 261.115 159.334 261.549 160.564 262.329 160.864 C 262.997 161.122 264.033 160.923 264.633 160.423 C 265.233 159.924 265.923 158.281 266.167 156.772 C 266.411 155.264 267.22 153.093 267.966 151.95 C 268.876 150.555 270.044 149.87 271.513 149.87 C 272.718 149.87 274.3 150.532 275.029 151.342 C 275.785 152.18 276.575 154.932 276.868 157.744 C 277.207 161.006 277.786 162.832 278.577 163.137 C 279.234 163.39 280.239 163.208 280.811 162.731 C 281.534 162.128 281.728 160.472 281.447 157.277 C 281.225 154.755 280.675 151.711 280.225 150.514 C 279.775 149.316 278.631 147.833 277.682 147.216 C 276.734 146.6 275.056 145.909 273.952 145.679 C 272.849 145.45 271.225 145.411 270.342 145.593 Z M 217.791 152.766 C 216.247 153.438 213.957 154.965 212.703 156.16 C 211.45 157.354 209.713 159.718 208.846 161.413 C 207.969 163.125 207.378 165.631 207.515 167.054 C 207.703 169.001 208.194 169.675 209.567 169.871 C 211.075 170.086 211.373 169.752 211.373 167.844 C 211.373 166.587 212.041 164.296 212.858 162.751 C 213.675 161.207 215.534 159.128 216.988 158.13 C 218.64 156.998 220.833 156.317 222.83 156.317 C 224.662 156.317 227.173 157.029 228.714 157.986 C 230.193 158.904 232.273 160.771 233.336 162.135 C 234.615 163.777 235.703 164.447 236.559 164.117 C 237.268 163.844 237.849 162.763 237.849 161.714 C 237.849 160.63 236.551 158.4 234.84 156.542 C 232.975 154.516 230.612 152.936 228.622 152.383 C 226.857 151.892 224.33 151.503 223.006 151.518 C 221.682 151.533 219.335 152.094 217.791 152.766 Z M 326.904 158.496 C 326.243 158.738 324.718 159.855 323.516 160.98 C 322.314 162.104 320.747 164.792 320.032 166.953 C 319.317 169.114 318.935 171.413 319.183 172.061 C 319.431 172.709 320.352 173.24 321.231 173.24 C 322.392 173.24 323.084 172.383 323.766 170.098 C 324.281 168.371 325.573 166.014 326.638 164.86 C 327.846 163.552 329.429 162.764 330.85 162.764 C 332.102 162.764 333.601 163.338 334.181 164.04 C 334.761 164.742 335.437 167.915 335.683 171.091 C 336.088 176.304 336.307 176.891 337.935 177.123 C 339.268 177.313 339.948 176.827 340.542 175.258 C 340.984 174.09 341.345 171.799 341.344 170.165 C 341.344 168.532 340.712 165.934 339.94 164.391 C 339.169 162.849 337.311 160.764 335.812 159.758 C 334.312 158.751 331.965 157.958 330.597 157.992 C 329.228 158.027 327.566 158.254 326.904 158.496 Z M 145.989 162.511 C 145.109 162.756 142.888 163.995 141.054 165.263 C 139.051 166.645 137.023 169.011 135.976 171.183 C 135.017 173.172 134.35 175.627 134.493 176.639 C 134.65 177.75 135.388 178.57 136.359 178.709 C 137.636 178.893 138.256 178.117 139.386 174.923 C 140.291 172.362 141.709 170.26 143.297 169.124 C 144.711 168.114 147.464 167.181 149.66 166.969 C 152.827 166.663 154.196 166.986 157.185 168.746 C 159.195 169.929 161.46 171.878 162.219 173.075 C 162.978 174.274 163.968 175.521 164.419 175.847 C 164.871 176.172 165.486 176.444 165.788 176.451 C 166.089 176.457 166.564 175.739 166.844 174.855 C 167.154 173.872 166.651 171.993 165.553 170.031 C 164.563 168.262 162.335 165.827 160.601 164.62 C 158.124 162.897 156.391 162.387 152.519 162.245 C 149.808 162.145 146.869 162.264 145.989 162.511 Z M 189.513 179.363 C 187.261 180.059 185.185 181.337 184.432 182.491 C 183.687 183.632 183.375 185.126 183.679 186.089 C 183.99 187.074 186.108 188.627 188.953 189.956 C 193.027 191.86 193.778 192.552 194.206 194.802 C 194.48 196.245 194.462 199.049 194.166 201.032 C 193.802 203.469 192.864 205.406 191.271 207.006 C 189.974 208.308 187.867 209.604 186.587 209.887 C 185.209 210.191 183.099 209.912 181.413 209.205 C 179.847 208.548 178.098 207.258 177.527 206.339 C 176.955 205.42 175.852 204.668 175.076 204.668 C 174.17 204.668 173.664 205.283 173.664 206.386 C 173.664 207.33 174.954 209.325 176.529 210.818 C 179.071 213.225 179.897 213.532 183.829 213.532 C 186.268 213.532 189.462 212.962 190.925 212.264 C 192.388 211.567 194.53 209.627 195.684 207.954 L 197.783 204.912 L 201.504 206.805 C 203.552 207.845 206.26 208.697 207.523 208.697 C 208.786 208.697 211.064 208.175 212.584 207.537 C 214.105 206.898 216.086 205.176 216.988 203.709 C 217.889 202.242 218.528 200.163 218.41 199.089 C 218.29 198.015 217.736 196.986 217.178 196.802 C 216.604 196.613 215.644 197.717 214.968 199.343 C 214.31 200.925 212.862 202.817 211.753 203.547 C 210.343 204.474 208.751 204.743 206.479 204.437 C 204.689 204.196 202.481 203.333 201.572 202.52 C 200.663 201.707 199.427 199.875 198.826 198.448 C 198.225 197.022 197.733 194.845 197.733 193.611 C 197.733 192.338 198.95 189.648 200.541 187.399 C 202.086 185.217 203.35 182.602 203.35 181.587 C 203.35 180.573 202.652 179.368 201.798 178.909 C 200.944 178.45 198.687 178.1 196.783 178.131 C 194.879 178.162 191.607 178.716 189.513 179.363 Z M 242.914 182.131 C 241.507 182.571 239.612 183.881 238.702 185.043 C 237.648 186.388 237.046 188.344 237.046 190.42 C 237.046 192.214 237.774 195.193 238.665 197.04 C 239.554 198.886 241.63 201.755 243.278 203.415 C 244.925 205.076 247.266 206.952 248.479 207.586 C 250.609 208.699 250.686 208.964 250.686 215.245 C 250.686 221.57 250.609 221.828 247.958 224.492 C 245.729 226.73 244.619 227.232 241.887 227.232 C 240.049 227.232 237.846 226.856 236.993 226.397 C 236.138 225.937 234.903 224.273 234.249 222.699 C 233.575 221.08 232.617 219.983 232.043 220.172 C 231.486 220.357 230.917 221.271 230.78 222.204 C 230.642 223.136 231.1 225.005 231.796 226.357 C 232.492 227.709 234.121 229.366 235.415 230.038 C 236.71 230.71 239.502 231.259 241.619 231.258 C 244.11 231.256 246.321 230.69 247.877 229.658 C 249.201 228.78 250.898 227.615 251.648 227.071 C 252.825 226.218 253.653 226.766 257.666 231.051 C 260.685 234.277 263.876 236.734 266.756 238.052 C 269.197 239.168 273.619 240.426 276.583 240.848 C 279.664 241.286 283.98 241.33 286.658 240.949 C 289.235 240.584 293.131 239.374 295.316 238.262 C 297.502 237.15 300.733 234.666 302.498 232.743 C 304.263 230.82 306.513 227.574 307.498 225.53 C 308.483 223.487 309.062 221.22 308.784 220.494 C 308.507 219.768 307.783 219.173 307.176 219.173 C 306.568 219.173 305.163 220.974 304.052 223.176 C 302.942 225.376 300.711 228.506 299.094 230.13 C 297.478 231.754 294.138 234.014 291.672 235.154 C 288.24 236.741 285.875 237.23 281.574 237.248 C 278.179 237.262 274.286 236.691 271.73 235.807 C 269.404 235.002 265.722 232.931 263.549 231.206 C 261.375 229.48 258.705 226.52 257.614 224.628 C 256.343 222.42 255.432 219.243 255.073 215.759 C 254.633 211.495 254.748 210.266 255.608 210.036 C 256.21 209.875 259.103 209.164 262.035 208.458 C 264.967 207.752 269.193 206.045 271.425 204.665 C 273.657 203.287 276.222 200.957 277.125 199.49 C 278.027 198.023 278.766 195.735 278.766 194.407 C 278.766 193.078 278.043 191.067 277.158 189.938 C 276.274 188.809 273.925 187.095 271.939 186.129 C 269.952 185.164 266.433 183.859 264.119 183.231 C 261.805 182.601 256.663 181.917 252.691 181.71 C 248.72 181.502 244.32 181.691 242.914 182.131 Z M 68.964 197.179 C 64.551 197.845 60.474 198.771 59.904 199.238 C 59.322 199.713 59.171 200.392 59.559 200.782 C 59.946 201.171 64.281 200.902 69.421 200.169 C 76.449 199.166 82.152 198.962 93.835 199.298 C 102.219 199.539 112.689 200.311 117.102 201.013 C 121.514 201.717 125.759 202.489 126.533 202.73 C 127.389 202.996 128.135 202.658 128.437 201.868 C 128.71 201.153 128.737 200.372 128.497 200.13 C 128.256 199.889 126.677 199.362 124.988 198.96 C 123.298 198.558 117.405 197.683 111.892 197.015 C 106.378 196.349 96.269 195.841 89.427 195.886 C 82.585 195.931 73.376 196.513 68.964 197.179 Z M 109.881 209.473 C 105.468 210.27 98.067 211.891 93.434 213.075 C 88.8 214.259 83.114 215.934 80.797 216.797 C 78.481 217.661 74.6 219.118 72.173 220.037 C 69.66 220.988 67.76 222.202 67.76 222.857 C 67.76 223.49 68.277 224.008 68.909 224.008 C 69.54 224.008 72.947 222.938 76.478 221.63 C 80.01 220.323 87.706 217.983 93.581 216.431 C 99.458 214.879 107.514 213.049 111.486 212.364 C 115.457 211.679 120.151 211.114 121.916 211.106 C 123.681 211.098 125.937 210.874 126.93 210.607 C 127.923 210.339 128.735 209.619 128.735 209.006 C 128.735 208.16 127.427 207.907 123.32 207.957 C 120.341 207.993 114.294 208.675 109.881 209.473 Z M 120.311 219.014 C 116.781 220.656 110.729 223.7 106.864 225.78 C 102.997 227.86 96.318 231.944 92.021 234.855 C 87.723 237.766 82.791 241.352 81.061 242.822 C 78.756 244.781 78.062 245.88 78.464 246.931 C 78.94 248.178 79.208 248.222 80.505 247.268 C 81.325 246.664 84.119 244.548 86.712 242.567 C 89.306 240.586 94.858 236.798 99.05 234.149 C 103.242 231.5 109.38 227.893 112.689 226.133 C 115.999 224.374 121.234 221.935 124.323 220.714 C 127.513 219.452 130.051 217.944 130.198 217.221 C 130.377 216.345 129.878 215.962 128.593 215.989 C 127.568 216.012 123.841 217.373 120.311 219.014 Z"
              stroke="none" fill="#14324d" fill-rule="evenodd" style="stroke-width: 1;">
            <bx:title>ojos y bigote</bx:title>
        </path>
    </g>
</svg>